<svg xmlns="http://www.w3.org/2000/svg" width="16" height="16.309" viewBox="0 0 16 16.309"><rect width="16" height="16" rx="8" fill="gray"/><path d="M14.864,22.45a8.19,8.19,0,0,1-5.046,0,.4.4,0,0,0,.5-.4c0-.09,0-.248,0-.46,0-.245-.005-.562-.008-.927-2.269.493-2.747-1.094-2.747-1.094a2.159,2.159,0,0,0-.905-1.193c-.741-.506.056-.5.056-.5a1.713,1.713,0,0,1,1.249.841,1.736,1.736,0,0,0,2.373.678,1.744,1.744,0,0,1,.518-1.091C9.043,18.1,7.14,17.4,7.14,14.272a3.155,3.155,0,0,1,.839-2.19,2.935,2.935,0,0,1,.08-2.159s.685-.219,2.243.836a7.718,7.718,0,0,1,4.083,0c1.557-1.056,2.24-.836,2.24-.836a2.93,2.93,0,0,1,.081,2.159,3.15,3.15,0,0,1,.838,2.19c0,3.134-1.907,3.825-3.723,4.027a1.949,1.949,0,0,1,.553,1.511c0,.729,0,1.365-.008,1.785,0,.208,0,.364,0,.453A.4.4,0,0,0,14.864,22.45Z" transform="translate(-4.188 -6.538)" fill="#fff" fill-rule="evenodd"/></svg>