<svg xmlns="http://www.w3.org/2000/svg" width="16.375" height="16.375" viewBox="0 0 16.375 16.375"><g transform="translate(0)"><g transform="translate(0)"><path d="M508.188,160c-2.224,0-2.5.01-3.376.049a6.013,6.013,0,0,0-1.988.381,4.188,4.188,0,0,0-2.395,2.395,6.008,6.008,0,0,0-.381,1.988c-.04.873-.049,1.152-.049,3.376s.01,2.5.049,3.376a6.015,6.015,0,0,0,.381,1.988,4.19,4.19,0,0,0,2.395,2.395,6.027,6.027,0,0,0,1.988.38c.873.04,1.152.049,3.376.049s2.5-.01,3.376-.049a6.014,6.014,0,0,0,1.987-.381,4.19,4.19,0,0,0,2.395-2.395,6.026,6.026,0,0,0,.38-1.988c.04-.873.049-1.152.049-3.376s-.01-2.5-.049-3.376a6.015,6.015,0,0,0-.381-1.988,4.188,4.188,0,0,0-2.395-2.395,6.007,6.007,0,0,0-1.987-.381C510.69,160.01,510.411,160,508.188,160Zm0,1.475c2.186,0,2.445.009,3.309.048a4.531,4.531,0,0,1,1.52.282,2.708,2.708,0,0,1,1.554,1.554,4.519,4.519,0,0,1,.282,1.52c.039.863.048,1.122.048,3.309s-.008,2.445-.048,3.309a4.533,4.533,0,0,1-.282,1.521,2.707,2.707,0,0,1-1.554,1.554,4.516,4.516,0,0,1-1.52.282c-.863.039-1.122.048-3.309.048s-2.445-.009-3.309-.048a4.531,4.531,0,0,1-1.521-.282,2.708,2.708,0,0,1-1.554-1.554,4.517,4.517,0,0,1-.282-1.52c-.039-.863-.048-1.122-.048-3.309s.009-2.445.048-3.309a4.532,4.532,0,0,1,.282-1.521,2.708,2.708,0,0,1,1.554-1.554,4.516,4.516,0,0,1,1.52-.282C505.742,161.484,506,161.475,508.188,161.475Zm0,2.508a4.2,4.2,0,1,0,4.2,4.2A4.2,4.2,0,0,0,508.188,163.983Zm0,6.934a2.729,2.729,0,1,1,2.729-2.729A2.729,2.729,0,0,1,508.188,170.917Zm5.353-7.1a.982.982,0,1,1-.983-.983A.983.983,0,0,1,513.541,163.817Z" transform="translate(-500 -160)" fill="gray" fill-rule="evenodd"/></g></g></svg>