<svg xmlns="http://www.w3.org/2000/svg" width="13.747" height="13.905" viewBox="0 0 13.747 13.905"><path d="M16.852,16.895ZM11.811,6.157A13.633,13.633,0,0,0,3.105,3V6.18a10.893,10.893,0,0,1,9.322,5.193,10.655,10.655,0,0,1,1.555,5.522h2.87A13.942,13.942,0,0,0,11.807,6.153ZM4.89,13.341a1.776,1.776,0,1,0,1.259.518,1.781,1.781,0,0,0-1.259-.518Zm3.822-3.314a8.833,8.833,0,0,0-5.607-2V10.7A6.2,6.2,0,0,1,8.52,13.877,6.273,6.273,0,0,1,9.3,16.905h2.688V16.9a8.9,8.9,0,0,0-3.282-6.877Z" transform="translate(-3.105 -3)" fill="gray"/></svg>