<svg xmlns="http://www.w3.org/2000/svg" width="16.375" height="13.325" viewBox="0 0 16.375 13.325"><path d="M36.475,65.579a6.793,6.793,0,0,1-1.929.531,3.371,3.371,0,0,0,1.478-1.86,6.675,6.675,0,0,1-2.134.815,3.359,3.359,0,0,0-5.812,2.3,3.289,3.289,0,0,0,.087.767,9.521,9.521,0,0,1-6.926-3.515,3.366,3.366,0,0,0,1.045,4.49,3.281,3.281,0,0,1-1.527-.42v.042a3.363,3.363,0,0,0,2.7,3.3,3.382,3.382,0,0,1-.885.118,3.17,3.17,0,0,1-.632-.062,3.365,3.365,0,0,0,3.14,2.335,6.736,6.736,0,0,1-4.175,1.44,6.811,6.811,0,0,1-.8-.049,9.391,9.391,0,0,0,5.143,1.52,9.5,9.5,0,0,0,9.567-9.571c0-.146,0-.291-.01-.434A6.839,6.839,0,0,0,36.475,65.579Z" transform="translate(-20.1 -64)" fill="gray"/></svg>